<mxfile host="app.diagrams.net" modified="2023-11-09T13:15:44.051Z" agent="Mozilla/5.0 (Macintosh; Intel Mac OS X 10_15_7) AppleWebKit/537.36 (KHTML, like Gecko) Chrome/118.0.0.0 Safari/537.36" etag="OboP_aniNgT-ibNWRXQH" version="22.1.0" type="github">
  <diagram id="C5RBs43oDa-KdzZeNtuy" name="Page-1">
    <mxGraphModel dx="457" dy="617" grid="1" gridSize="10" guides="1" tooltips="1" connect="1" arrows="1" fold="1" page="1" pageScale="1" pageWidth="827" pageHeight="1169" math="0" shadow="0">
      <root>
        <mxCell id="WIyWlLk6GJQsqaUBKTNV-0" />
        <mxCell id="WIyWlLk6GJQsqaUBKTNV-1" parent="WIyWlLk6GJQsqaUBKTNV-0" />
        <mxCell id="WIyWlLk6GJQsqaUBKTNV-2" value="" style="rounded=0;html=1;jettySize=auto;orthogonalLoop=1;fontSize=11;endArrow=block;endFill=0;endSize=8;strokeWidth=1;shadow=0;labelBackgroundColor=none;edgeStyle=orthogonalEdgeStyle;" parent="WIyWlLk6GJQsqaUBKTNV-1" source="WIyWlLk6GJQsqaUBKTNV-3" edge="1">
          <mxGeometry relative="1" as="geometry">
            <mxPoint x="220" y="170" as="targetPoint" />
          </mxGeometry>
        </mxCell>
        <mxCell id="WIyWlLk6GJQsqaUBKTNV-3" value="START" style="rounded=1;whiteSpace=wrap;html=1;fontSize=12;glass=0;strokeWidth=1;shadow=0;" parent="WIyWlLk6GJQsqaUBKTNV-1" vertex="1">
          <mxGeometry x="160" y="80" width="120" height="40" as="geometry" />
        </mxCell>
        <mxCell id="SqyLHD7Wzm_RoQnghILt-2" value="" style="edgeStyle=orthogonalEdgeStyle;rounded=0;orthogonalLoop=1;jettySize=auto;html=1;" edge="1" parent="WIyWlLk6GJQsqaUBKTNV-1" source="SqyLHD7Wzm_RoQnghILt-0" target="SqyLHD7Wzm_RoQnghILt-1">
          <mxGeometry relative="1" as="geometry" />
        </mxCell>
        <mxCell id="SqyLHD7Wzm_RoQnghILt-5" style="edgeStyle=orthogonalEdgeStyle;rounded=0;orthogonalLoop=1;jettySize=auto;html=1;" edge="1" parent="WIyWlLk6GJQsqaUBKTNV-1">
          <mxGeometry relative="1" as="geometry">
            <mxPoint x="220" y="140" as="targetPoint" />
            <mxPoint x="220" y="140" as="sourcePoint" />
          </mxGeometry>
        </mxCell>
        <mxCell id="SqyLHD7Wzm_RoQnghILt-6" value="" style="edgeStyle=orthogonalEdgeStyle;rounded=0;orthogonalLoop=1;jettySize=auto;html=1;" edge="1" parent="WIyWlLk6GJQsqaUBKTNV-1" source="SqyLHD7Wzm_RoQnghILt-0" target="WIyWlLk6GJQsqaUBKTNV-3">
          <mxGeometry relative="1" as="geometry" />
        </mxCell>
        <mxCell id="SqyLHD7Wzm_RoQnghILt-0" value="GENERATE RANDOM WORD" style="rounded=1;whiteSpace=wrap;html=1;" vertex="1" parent="WIyWlLk6GJQsqaUBKTNV-1">
          <mxGeometry x="160" y="140" width="120" height="50" as="geometry" />
        </mxCell>
        <mxCell id="SqyLHD7Wzm_RoQnghILt-4" value="" style="edgeStyle=orthogonalEdgeStyle;rounded=0;orthogonalLoop=1;jettySize=auto;html=1;" edge="1" parent="WIyWlLk6GJQsqaUBKTNV-1" source="SqyLHD7Wzm_RoQnghILt-1" target="SqyLHD7Wzm_RoQnghILt-3">
          <mxGeometry relative="1" as="geometry" />
        </mxCell>
        <mxCell id="SqyLHD7Wzm_RoQnghILt-1" value="GENERATE AS&amp;nbsp; MANY BLANKS AS IN WORD" style="whiteSpace=wrap;html=1;rounded=1;" vertex="1" parent="WIyWlLk6GJQsqaUBKTNV-1">
          <mxGeometry x="160" y="210" width="120" height="80" as="geometry" />
        </mxCell>
        <mxCell id="SqyLHD7Wzm_RoQnghILt-8" value="" style="edgeStyle=orthogonalEdgeStyle;rounded=0;orthogonalLoop=1;jettySize=auto;html=1;" edge="1" parent="WIyWlLk6GJQsqaUBKTNV-1" source="SqyLHD7Wzm_RoQnghILt-3" target="SqyLHD7Wzm_RoQnghILt-7">
          <mxGeometry relative="1" as="geometry" />
        </mxCell>
        <mxCell id="SqyLHD7Wzm_RoQnghILt-3" value="ASK USER TO GUESS LETTER" style="whiteSpace=wrap;html=1;rounded=1;" vertex="1" parent="WIyWlLk6GJQsqaUBKTNV-1">
          <mxGeometry x="160" y="310" width="120" height="50" as="geometry" />
        </mxCell>
        <mxCell id="SqyLHD7Wzm_RoQnghILt-10" value="" style="edgeStyle=orthogonalEdgeStyle;rounded=0;orthogonalLoop=1;jettySize=auto;html=1;" edge="1" parent="WIyWlLk6GJQsqaUBKTNV-1" source="SqyLHD7Wzm_RoQnghILt-7" target="SqyLHD7Wzm_RoQnghILt-9">
          <mxGeometry relative="1" as="geometry">
            <Array as="points">
              <mxPoint x="110" y="435" />
            </Array>
          </mxGeometry>
        </mxCell>
        <mxCell id="SqyLHD7Wzm_RoQnghILt-15" style="edgeStyle=orthogonalEdgeStyle;rounded=0;orthogonalLoop=1;jettySize=auto;html=1;" edge="1" parent="WIyWlLk6GJQsqaUBKTNV-1" source="SqyLHD7Wzm_RoQnghILt-7">
          <mxGeometry relative="1" as="geometry">
            <mxPoint x="340" y="470" as="targetPoint" />
          </mxGeometry>
        </mxCell>
        <mxCell id="SqyLHD7Wzm_RoQnghILt-7" value="IS THE GUESSED LETTER &lt;br&gt;IN WORD" style="rhombus;whiteSpace=wrap;html=1;rounded=1;" vertex="1" parent="WIyWlLk6GJQsqaUBKTNV-1">
          <mxGeometry x="120" y="380" width="200" height="110" as="geometry" />
        </mxCell>
        <mxCell id="SqyLHD7Wzm_RoQnghILt-19" value="" style="edgeStyle=orthogonalEdgeStyle;rounded=0;orthogonalLoop=1;jettySize=auto;html=1;" edge="1" parent="WIyWlLk6GJQsqaUBKTNV-1" source="SqyLHD7Wzm_RoQnghILt-9" target="SqyLHD7Wzm_RoQnghILt-18">
          <mxGeometry relative="1" as="geometry" />
        </mxCell>
        <mxCell id="SqyLHD7Wzm_RoQnghILt-9" value="REPLACE BLANK WITH LETTER" style="whiteSpace=wrap;html=1;rounded=1;" vertex="1" parent="WIyWlLk6GJQsqaUBKTNV-1">
          <mxGeometry x="50" y="480" width="120" height="60" as="geometry" />
        </mxCell>
        <mxCell id="SqyLHD7Wzm_RoQnghILt-11" value="YES" style="text;html=1;align=center;verticalAlign=middle;resizable=0;points=[];autosize=1;strokeColor=none;fillColor=none;" vertex="1" parent="WIyWlLk6GJQsqaUBKTNV-1">
          <mxGeometry x="70" y="440" width="50" height="30" as="geometry" />
        </mxCell>
        <mxCell id="SqyLHD7Wzm_RoQnghILt-26" value="" style="edgeStyle=orthogonalEdgeStyle;rounded=0;orthogonalLoop=1;jettySize=auto;html=1;" edge="1" parent="WIyWlLk6GJQsqaUBKTNV-1" source="SqyLHD7Wzm_RoQnghILt-12" target="SqyLHD7Wzm_RoQnghILt-25">
          <mxGeometry relative="1" as="geometry" />
        </mxCell>
        <mxCell id="SqyLHD7Wzm_RoQnghILt-12" value="LOOSE A LIFE" style="whiteSpace=wrap;html=1;rounded=1;" vertex="1" parent="WIyWlLk6GJQsqaUBKTNV-1">
          <mxGeometry x="280" y="470" width="120" height="60" as="geometry" />
        </mxCell>
        <mxCell id="SqyLHD7Wzm_RoQnghILt-17" value="NO" style="text;html=1;align=center;verticalAlign=middle;resizable=0;points=[];autosize=1;strokeColor=none;fillColor=none;" vertex="1" parent="WIyWlLk6GJQsqaUBKTNV-1">
          <mxGeometry x="340" y="430" width="40" height="30" as="geometry" />
        </mxCell>
        <mxCell id="SqyLHD7Wzm_RoQnghILt-20" style="edgeStyle=orthogonalEdgeStyle;rounded=0;orthogonalLoop=1;jettySize=auto;html=1;entryX=0;entryY=0.5;entryDx=0;entryDy=0;exitX=0;exitY=0.5;exitDx=0;exitDy=0;" edge="1" parent="WIyWlLk6GJQsqaUBKTNV-1" source="SqyLHD7Wzm_RoQnghILt-18" target="SqyLHD7Wzm_RoQnghILt-3">
          <mxGeometry relative="1" as="geometry">
            <mxPoint x="20" y="330" as="targetPoint" />
          </mxGeometry>
        </mxCell>
        <mxCell id="SqyLHD7Wzm_RoQnghILt-18" value="ARE ALL BLANKS&amp;nbsp;&lt;br&gt;FILLED" style="rhombus;whiteSpace=wrap;html=1;rounded=1;" vertex="1" parent="WIyWlLk6GJQsqaUBKTNV-1">
          <mxGeometry x="40" y="610" width="140" height="90" as="geometry" />
        </mxCell>
        <mxCell id="SqyLHD7Wzm_RoQnghILt-21" value="NO" style="text;html=1;align=center;verticalAlign=middle;resizable=0;points=[];autosize=1;strokeColor=none;fillColor=none;" vertex="1" parent="WIyWlLk6GJQsqaUBKTNV-1">
          <mxGeometry x="10" y="658" width="40" height="30" as="geometry" />
        </mxCell>
        <mxCell id="SqyLHD7Wzm_RoQnghILt-27" style="edgeStyle=orthogonalEdgeStyle;rounded=0;orthogonalLoop=1;jettySize=auto;html=1;exitX=1;exitY=0.5;exitDx=0;exitDy=0;entryX=1;entryY=0.5;entryDx=0;entryDy=0;" edge="1" parent="WIyWlLk6GJQsqaUBKTNV-1" source="SqyLHD7Wzm_RoQnghILt-25" target="SqyLHD7Wzm_RoQnghILt-3">
          <mxGeometry relative="1" as="geometry" />
        </mxCell>
        <mxCell id="SqyLHD7Wzm_RoQnghILt-25" value="HAVE THEY&amp;nbsp;&lt;br&gt;RAN OUT&lt;br&gt;OF LIVES" style="rhombus;whiteSpace=wrap;html=1;rounded=1;" vertex="1" parent="WIyWlLk6GJQsqaUBKTNV-1">
          <mxGeometry x="270" y="610" width="140" height="90" as="geometry" />
        </mxCell>
        <mxCell id="SqyLHD7Wzm_RoQnghILt-28" value="NO" style="text;html=1;align=center;verticalAlign=middle;resizable=0;points=[];autosize=1;strokeColor=none;fillColor=none;" vertex="1" parent="WIyWlLk6GJQsqaUBKTNV-1">
          <mxGeometry x="410" y="640" width="40" height="30" as="geometry" />
        </mxCell>
        <mxCell id="SqyLHD7Wzm_RoQnghILt-30" value="GAME OVER&lt;br&gt;WIN OR LOOSE" style="rounded=1;whiteSpace=wrap;html=1;" vertex="1" parent="WIyWlLk6GJQsqaUBKTNV-1">
          <mxGeometry x="180" y="740" width="120" height="60" as="geometry" />
        </mxCell>
        <mxCell id="SqyLHD7Wzm_RoQnghILt-32" style="edgeStyle=orthogonalEdgeStyle;rounded=0;orthogonalLoop=1;jettySize=auto;html=1;exitX=0.5;exitY=1;exitDx=0;exitDy=0;entryX=0.567;entryY=-0.017;entryDx=0;entryDy=0;entryPerimeter=0;" edge="1" parent="WIyWlLk6GJQsqaUBKTNV-1" source="SqyLHD7Wzm_RoQnghILt-25" target="SqyLHD7Wzm_RoQnghILt-30">
          <mxGeometry relative="1" as="geometry" />
        </mxCell>
        <mxCell id="SqyLHD7Wzm_RoQnghILt-33" style="edgeStyle=orthogonalEdgeStyle;rounded=0;orthogonalLoop=1;jettySize=auto;html=1;entryX=0.317;entryY=-0.033;entryDx=0;entryDy=0;entryPerimeter=0;" edge="1" parent="WIyWlLk6GJQsqaUBKTNV-1" source="SqyLHD7Wzm_RoQnghILt-18" target="SqyLHD7Wzm_RoQnghILt-30">
          <mxGeometry relative="1" as="geometry" />
        </mxCell>
        <mxCell id="SqyLHD7Wzm_RoQnghILt-34" value="YES" style="text;html=1;align=center;verticalAlign=middle;resizable=0;points=[];autosize=1;strokeColor=none;fillColor=none;" vertex="1" parent="WIyWlLk6GJQsqaUBKTNV-1">
          <mxGeometry x="145" y="688" width="50" height="30" as="geometry" />
        </mxCell>
        <mxCell id="SqyLHD7Wzm_RoQnghILt-35" value="YES" style="text;html=1;align=center;verticalAlign=middle;resizable=0;points=[];autosize=1;strokeColor=none;fillColor=none;" vertex="1" parent="WIyWlLk6GJQsqaUBKTNV-1">
          <mxGeometry x="255" y="688" width="50" height="30" as="geometry" />
        </mxCell>
      </root>
    </mxGraphModel>
  </diagram>
</mxfile>
